<svg width="193" height="204" viewBox="0 0 193 204" fill="none" xmlns="http://www.w3.org/2000/svg">
<path fill-rule="evenodd" clip-rule="evenodd" d="M92.326 0.404574C90.6877 0.877101 88.4231 2.96485 80.2318 11.554L70.1534 22.1227L81.1424 33.7574L92.1314 45.3921L94.577 44.8626C103.872 42.85 113.332 52.9739 111.355 62.817L110.803 65.5664L121.19 76.5959L131.576 87.6249L135.384 87.3272C142.18 86.795 147.182 89.7452 150.097 96.0052C152.377 100.902 152.374 104.818 150.087 109.73C144.641 121.425 129.224 121.465 123.79 109.797C122.493 107.011 122.186 105.703 122.196 103.004C122.204 101.165 122.439 99.0391 122.721 98.2789C123.206 96.9679 122.733 96.3696 113.448 86.5643L103.664 76.231V103.662L103.665 131.092L106.194 133.395C114.374 140.841 113.081 153.693 103.613 159.054C100.814 160.64 99.9241 160.879 96.8613 160.872C90.7754 160.857 86.0254 157.675 83.4287 151.873C80.2782 144.832 82.5171 136.284 88.5501 132.319L91.0662 130.666V102.867V75.0686L88.5879 73.3708C85.8289 71.4807 83.275 67.8119 82.442 64.5409C81.8983 62.4074 82.0449 56.7184 82.6829 55.1783C82.9152 54.6163 79.7944 50.9793 72.1681 42.9256L61.3226 31.472L31.1412 63.4355L0.959746 95.399L0.324803 98.4771C-0.501126 102.479 0.244679 106.084 2.60153 109.479C5.66941 113.897 88.7904 200.982 91.1679 202.269C93.6916 203.635 97.8132 203.857 100.893 202.793C102.549 202.22 110.717 193.86 146.678 155.939C180.231 120.555 190.69 109.223 191.488 107.385C192.934 104.057 192.891 99.3625 191.386 96.1981C189.838 92.9442 104.287 2.48859 101.488 1.14613C99.0624 -0.0173443 94.9454 -0.35083 92.326 0.404574Z" fill="#F05033"/>
</svg>
