<svg width="40" height="41" viewBox="0 0 40 41" fill="none" xmlns="http://www.w3.org/2000/svg">
<rect width="40" height="40.0036" rx="4" fill="black"/>
<path fill-rule="evenodd" clip-rule="evenodd" d="M18.7515 4.05935C17.791 4.12527 16.522 4.35858 15.5245 4.65262C9.88479 6.31553 5.49823 11.1718 4.33254 17.0431C3.48211 21.3265 4.27801 25.7223 6.5459 29.268C8.14096 31.7616 10.1689 33.6632 12.5989 34.9437C13.4826 35.4094 14.7306 35.9289 15.1179 35.9924C15.4802 36.0517 15.7991 35.873 15.9486 35.5266C16.0597 35.2692 16.065 35.1421 16.0247 33.6942L15.9814 32.1384L15.4434 32.2238C14.8393 32.3196 13.8404 32.2852 13.0312 32.1407C12.3758 32.0236 11.7095 31.6844 11.29 31.2542C10.9581 30.9138 10.8725 30.766 10.4377 29.7832C10.045 28.8953 9.59681 28.3059 8.99121 27.881C8.57378 27.5882 8.23108 27.2048 8.25815 27.0609C8.29417 26.8692 8.56014 26.7841 9.01578 26.8184C9.89561 26.8847 10.8168 27.5429 11.473 28.5743C11.9224 29.2805 12.3657 29.7194 12.9079 29.995C13.2982 30.1934 13.4054 30.2181 13.9675 30.2396C14.6137 30.2642 15.2609 30.1643 15.7862 29.9589C16.0456 29.8573 16.0541 29.8446 16.1493 29.4127C16.2705 28.863 16.4992 28.3605 16.8138 27.9528L17.0555 27.6396L16.5433 27.5658C14.8941 27.3281 13.7197 26.9158 12.6244 26.19C11.1907 25.2399 10.3396 23.7608 9.93013 21.5081C9.80275 20.8071 9.78273 19.0158 9.89492 18.3566C10.0767 17.289 10.5065 16.3099 11.1473 15.5042L11.4272 15.1522L11.3059 14.7529C10.9789 13.6768 11.041 12.3756 11.481 11.0821C11.5915 10.7573 11.6186 10.7442 12.1227 10.7708C12.8593 10.8097 14.4411 11.4602 15.5171 12.1666L15.9651 12.4608L16.3108 12.3914C16.501 12.3533 16.8593 12.2772 17.1072 12.2224C18.8017 11.8473 21.2029 11.8473 22.8973 12.2224C23.1452 12.2772 23.5028 12.3523 23.6919 12.3892L24.0359 12.4563L24.63 12.0862C26.0457 11.2044 27.6593 10.6124 28.2248 10.7674C28.3856 10.8115 28.4307 10.877 28.5542 11.2457C28.8233 12.0492 28.8987 12.5913 28.8671 13.496C28.8458 14.1054 28.8024 14.4447 28.7076 14.7427L28.5774 15.1522L28.8509 15.4962C29.4067 16.1951 29.8225 17.0595 30.0523 17.9935C30.1918 18.5609 30.2072 20.6637 30.0777 21.4761C29.8755 22.7447 29.3623 24.076 28.7649 24.8821C27.7318 26.2759 25.8605 27.2268 23.492 27.5614L22.9481 27.6383L23.1902 27.9521C23.4883 28.3384 23.7213 28.8334 23.8562 29.3669C23.9414 29.7041 23.9626 30.2451 23.9825 32.5908C24.0092 35.7273 24.0084 35.722 24.4272 35.9255C24.7162 36.066 24.9504 36.0229 25.8636 35.6616C30.4755 33.8369 34.1192 29.6887 35.4488 24.7491C36.3325 21.4661 36.1456 17.6539 34.9458 14.4926C33.8755 11.6722 31.9754 9.0972 29.643 7.30637C27.1139 5.36441 24.2336 4.26864 21.0977 4.05531C20.0024 3.98081 19.8939 3.981 18.7515 4.05935Z" fill="white"/>
</svg>
