<svg width="193" height="193" viewBox="0 0 193 193" fill="none" xmlns="http://www.w3.org/2000/svg">
<rect width="193" height="193" rx="16" fill="#F73826"/>
<rect width="120" height="124.8" transform="translate(36 34)" fill="#F73826"/>
<path fill-rule="evenodd" clip-rule="evenodd" d="M155.102 61.7533C155.147 61.9168 155.169 62.0855 155.17 62.2549V88.5877C155.17 88.9257 155.08 89.2577 154.911 89.5501C154.742 89.8426 154.498 90.0851 154.205 90.2533L132.103 102.978V128.2C132.103 128.886 131.738 129.52 131.143 129.865L85.008 156.424C84.9024 156.484 84.7872 156.522 84.672 156.563C84.6288 156.577 84.588 156.604 84.5424 156.616C84.2199 156.701 83.8809 156.701 83.5584 156.616C83.5056 156.601 83.4576 156.572 83.4072 156.553C83.3016 156.515 83.1912 156.481 83.0904 156.424L36.9648 129.865C36.6718 129.697 36.4283 129.454 36.2589 129.162C36.0895 128.87 36.0002 128.538 36 128.2V49.2013C36 49.0285 36.024 48.8605 36.0672 48.6973C36.0816 48.6421 36.1152 48.5917 36.1344 48.5365C36.1704 48.4357 36.204 48.3325 36.2568 48.2389C36.2928 48.1765 36.3456 48.1261 36.3888 48.0685C36.444 47.9917 36.4944 47.9125 36.5592 47.8453C36.6144 47.7901 36.6864 47.7493 36.7488 47.7013C36.8184 47.6437 36.8808 47.5813 36.96 47.5357L60.0264 34.2565C60.3184 34.0884 60.6495 34 60.9864 34C61.3233 34 61.6544 34.0884 61.9464 34.2565L85.0104 47.5357H85.0152C85.092 47.5837 85.1568 47.6437 85.2264 47.6989C85.2888 47.7469 85.3584 47.7901 85.4136 47.8429C85.4808 47.9125 85.5288 47.9917 85.5864 48.0685C85.6272 48.1261 85.6824 48.1765 85.716 48.2389C85.7712 48.3349 85.8024 48.4357 85.8408 48.5365C85.86 48.5917 85.8936 48.6421 85.908 48.6997C85.9522 48.8632 85.9748 49.0319 85.9752 49.2013V98.5429L105.194 87.4765V62.2525C105.194 62.0845 105.218 61.9141 105.262 61.7533C105.278 61.6957 105.31 61.6453 105.329 61.5901C105.367 61.4893 105.401 61.3861 105.454 61.2925C105.49 61.2301 105.542 61.1797 105.583 61.1221C105.641 61.0453 105.689 60.9661 105.756 60.8989C105.811 60.8437 105.881 60.8029 105.943 60.7549C106.015 60.6973 106.078 60.6349 106.154 60.5893L129.223 47.3101C129.515 47.1418 129.846 47.0532 130.183 47.0532C130.52 47.0532 130.851 47.1418 131.143 47.3101L154.207 60.5893C154.289 60.6373 154.351 60.6973 154.423 60.7525C154.483 60.8005 154.553 60.8437 154.608 60.8965C154.675 60.9661 154.723 61.0453 154.781 61.1221C154.824 61.1797 154.877 61.2301 154.91 61.2925C154.966 61.3861 154.997 61.4893 155.035 61.5901C155.057 61.6453 155.088 61.6957 155.102 61.7533ZM151.325 87.4765V65.5789L143.254 70.2253L132.103 76.6453V98.5429L151.327 87.4765H151.325ZM128.261 127.088V105.176L117.293 111.44L85.9728 129.316V151.434L128.261 127.088ZM39.8448 52.5253V127.088L82.128 151.432V129.318L60.0384 116.816L60.0312 116.812L60.0216 116.807C59.9472 116.764 59.8848 116.701 59.8152 116.648C59.7552 116.6 59.6856 116.562 59.6328 116.509L59.628 116.502C59.5656 116.442 59.5224 116.368 59.4696 116.3C59.4216 116.236 59.364 116.18 59.3256 116.113L59.3232 116.106C59.28 116.034 59.2536 115.948 59.2224 115.866C59.1912 115.794 59.1504 115.727 59.1312 115.65C59.1072 115.559 59.1024 115.46 59.0928 115.367C59.0832 115.295 59.064 115.223 59.064 115.151V115.146V63.5917L47.916 57.1693L39.8448 52.5253ZM60.9888 38.1397L41.772 49.2013L60.984 60.2629L80.1984 49.1989L60.984 38.1397H60.9888ZM70.9824 107.173L82.1304 100.756V52.5253L74.0592 57.1717L62.9088 63.5917V111.822L70.9824 107.173ZM130.183 51.1933L110.969 62.2549L130.183 73.3165L149.395 62.2525L130.183 51.1933ZM128.261 76.6453L117.11 70.2253L109.039 65.5789V87.4765L120.187 93.8941L128.261 98.5429V76.6453ZM84.048 125.992L112.231 109.902L126.319 101.862L107.119 90.8077L85.0128 103.535L64.8648 115.134L84.048 125.992Z" fill="#FCFCFC"/>
</svg>
