<svg width="193" height="193" viewBox="0 0 193 193" fill="none" xmlns="http://www.w3.org/2000/svg">
<rect width="193" height="193" rx="16" fill="#161D2D"/>
<path d="M72.9207 54.1582C75.59 52.3731 80.2364 50.2904 83.2023 49.4971C86.1681 48.7037 92.0009 48.0095 96.0542 48.0095C100.108 47.9103 106.138 48.6045 109.4 49.3979C112.663 50.2904 117.309 52.1747 119.781 53.6623C122.252 55.0507 128.283 60.0093 133.127 64.5713C137.971 69.2324 143.606 73.6951 145.485 74.6869C147.363 75.6786 150.724 76.7695 152.899 77.1662C155.47 77.5629 158.732 77.2654 162.291 76.2736C165.356 75.4802 169.508 73.2985 171.881 71.315C174.253 69.3316 176.428 67.9431 176.824 68.2407C177.318 68.5382 176.725 70.8191 175.637 73.4968C174.649 76.0753 172.078 80.2405 170.002 82.819C167.926 85.4967 164.17 88.9677 161.5 90.5545C158.93 92.2404 154.58 94.323 151.911 95.2156C148.451 96.4056 144.002 96.9015 137.082 96.8023C129.964 96.8023 125.614 96.2073 121.758 94.8189C118.792 93.728 114.344 91.5462 111.872 89.8603C109.4 88.1743 103.271 83.0174 98.2292 78.2571C92.0998 72.4059 87.9476 69.4307 85.4761 68.7365C83.4 68.2407 79.7421 67.7448 77.2706 67.7448C74.7991 67.7448 71.0423 68.6373 68.8674 69.5299C66.6924 70.5216 63.2323 72.8026 61.2551 74.4885C59.179 76.2736 57.3006 77.3645 57.0041 76.8687C56.8063 76.472 57.7949 73.4968 59.3767 70.2241C60.8596 66.9514 63.43 62.687 65.1107 60.8027C66.6924 58.9184 70.2514 55.9433 72.9207 54.1582Z" fill="#16BECB"/>
<path d="M28.8286 105.43C31.2013 103.546 36.1444 100.968 39.7034 99.7775C44.4487 98.0916 48.502 97.4965 55.0268 97.4965C60.3653 97.4965 66.0993 98.0916 69.3617 99.0833C72.3275 99.9758 76.7763 101.761 79.2478 103.249C81.7193 104.637 87.4533 109.496 92.0998 113.959C96.7462 118.422 102.48 122.984 104.952 124.174C107.819 125.463 111.477 126.257 115.134 126.257C118.199 126.257 122.252 125.662 124.032 124.967C125.713 124.273 129.074 121.992 131.348 120.009C133.72 118.025 135.796 116.637 136.093 117.034C136.291 117.529 135.203 120.604 133.621 123.976C131.941 127.447 128.678 132.306 126.306 134.885C123.636 137.86 119.682 140.736 115.728 142.62C110.29 145.099 107.918 145.595 99.02 145.893C91.3089 146.19 87.1567 145.893 82.708 144.703C79.4455 143.711 74.3048 141.331 71.3389 139.446C68.3731 137.463 62.3426 132.405 57.9927 128.141C53.6428 123.976 48.4031 119.81 46.327 118.918C44.3498 118.025 40.0988 117.331 36.9352 117.331C33.6728 117.331 29.7184 118.124 27.3457 119.215C25.1708 120.207 21.9083 122.29 20.1288 123.876C18.3493 125.463 16.5698 126.455 16.1744 126.058C15.779 125.562 16.0755 123.777 16.8664 122.091C17.6573 120.306 19.7334 116.538 21.414 113.86C23.0947 111.083 26.456 107.315 28.8286 105.43Z" fill="#16BECB"/>
</svg>
